<?xml version="1.0" encoding="UTF-8"?>
<svg version="1.1" xmlns="http://www.w3.org/2000/svg" width="500" height="500">
<path d="M0 0 C165 0 330 0 500 0 C500 165 500 330 500 500 C335 500 170 500 0 500 C0 335 0 170 0 0 Z " fill="#FEFEFE" transform="translate(0,0)"/>
<path d="M0 0 C8.36354384 -0.04548066 16.72698887 -0.08204678 25.09062386 -0.10362434 C28.97566508 -0.113989 32.86061612 -0.12801149 36.74560547 -0.15087891 C40.5063145 -0.17287213 44.26693769 -0.18462337 48.02770615 -0.18975449 C49.45076724 -0.19340339 50.87382453 -0.200526 52.2968483 -0.21146011 C69.11252804 -0.33533465 88.65400341 0.47197061 101.6796875 12.55859375 C108.71475118 20.13616235 110.58796753 27.56995728 110.47485352 37.68652344 C110.23313566 43.74219194 109.03112587 48.69803066 106 54 C105.49146484 54.96292969 105.49146484 54.96292969 104.97265625 55.9453125 C98.86882799 65.98078815 86.46827414 68.93279418 75.78173828 71.54150391 C72.32303732 72.11157942 69.0173623 72.11162296 65.51171875 72.09765625 C64.80852005 72.0962413 64.10532135 72.09482635 63.3808136 72.09336853 C61.14966456 72.08780109 58.91861836 72.07525475 56.6875 72.0625 C55.16862125 72.05748079 53.64974091 72.05291862 52.13085938 72.04882812 C48.42053988 72.03784236 44.71027999 72.02060034 41 72 C41.11729635 78.67534861 41.24213215 85.35052509 41.37231445 92.02563477 C41.41573665 94.29838836 41.45740616 96.57117613 41.49731445 98.84399414 C41.55484119 102.10313232 41.61858552 105.36209731 41.68359375 108.62109375 C41.70030624 109.64400009 41.71701874 110.66690643 41.73423767 111.72080994 C41.7641555 113.13215965 41.7641555 113.13215965 41.79467773 114.57202148 C41.81799416 115.82111549 41.81799416 115.82111549 41.84178162 117.09544373 C41.79428614 119.00966585 41.79428614 119.00966585 43 120 C44.68183948 120.23287008 46.3712416 120.41264166 48.0625 120.5625 C49.44115234 120.68818359 49.44115234 120.68818359 50.84765625 120.81640625 C51.55792969 120.87699219 52.26820313 120.93757813 53 121 C52.95617187 121.76183594 52.91234375 122.52367187 52.8671875 123.30859375 C52.87907813 128.0707896 52.99490102 131.6530026 55.90625 135.5546875 C58.49232725 137.91980246 61.13483088 139.98233003 64 142 C65.34771484 142.95712891 65.34771484 142.95712891 66.72265625 143.93359375 C78.02384929 151.49482362 88.72883058 154.95187724 102 157 C102 157.66 102 158.32 102 159 C99.75157909 159.98293267 97.50140453 160.96144466 95.25 161.9375 C94.61578125 162.21529297 93.9815625 162.49308594 93.328125 162.77929688 C81.53427339 167.87768065 69.14343801 166.83906897 57 163 C44.33702652 157.53584021 31.54563211 148.04698811 22.67236328 137.40820312 C20.44205582 135.53018656 19.00372101 135.57587033 16.11328125 135.48828125 C15.17548828 135.45283203 14.23769531 135.41738281 13.27148438 135.38085938 C11.80678711 135.34702148 11.80678711 135.34702148 10.3125 135.3125 C9.32443359 135.27833984 8.33636719 135.24417969 7.31835938 135.20898438 C4.87930601 135.12650431 2.43967061 135.06157567 0 135 C0 130.38 0 125.76 0 121 C3.63 121 7.26 121 11 121 C11 85.69 11 50.38 11 14 C7.37 14 3.74 14 0 14 C0 9.38 0 4.76 0 0 Z " fill="#0392AB" transform="translate(228,152)"/>
<path d="M0 0 C8.36354384 -0.04548066 16.72698887 -0.08204678 25.09062386 -0.10362434 C28.97566508 -0.113989 32.86061612 -0.12801149 36.74560547 -0.15087891 C40.5063145 -0.17287213 44.26693769 -0.18462337 48.02770615 -0.18975449 C49.45076724 -0.19340339 50.87382453 -0.200526 52.2968483 -0.21146011 C69.11252804 -0.33533465 88.65400341 0.47197061 101.6796875 12.55859375 C108.71475118 20.13616235 110.58796753 27.56995728 110.47485352 37.68652344 C110.23313566 43.74219194 109.03112587 48.69803066 106 54 C105.49146484 54.96292969 105.49146484 54.96292969 104.97265625 55.9453125 C98.86882799 65.98078815 86.46827414 68.93279418 75.78173828 71.54150391 C72.32303732 72.11157942 69.0173623 72.11162296 65.51171875 72.09765625 C64.80852005 72.0962413 64.10532135 72.09482635 63.3808136 72.09336853 C61.14966456 72.08780109 58.91861836 72.07525475 56.6875 72.0625 C55.16862125 72.05748079 53.64974091 72.05291862 52.13085938 72.04882812 C48.42053988 72.03784236 44.71027999 72.02060034 41 72 C41.11729635 78.67534861 41.24213215 85.35052509 41.37231445 92.02563477 C41.41573665 94.29838836 41.45740616 96.57117613 41.49731445 98.84399414 C41.55484119 102.10313232 41.61858552 105.36209731 41.68359375 108.62109375 C41.70030624 109.64400009 41.71701874 110.66690643 41.73423767 111.72080994 C41.7641555 113.13215965 41.7641555 113.13215965 41.79467773 114.57202148 C41.81799416 115.82111549 41.81799416 115.82111549 41.84178162 117.09544373 C41.79428614 119.00966585 41.79428614 119.00966585 43 120 C44.68183948 120.23287008 46.3712416 120.41264166 48.0625 120.5625 C49.44115234 120.68818359 49.44115234 120.68818359 50.84765625 120.81640625 C51.55792969 120.87699219 52.26820313 120.93757813 53 121 C52.95617187 121.76183594 52.91234375 122.52367187 52.8671875 123.30859375 C52.87907813 128.0707896 52.99490102 131.6530026 55.90625 135.5546875 C58.49232725 137.91980246 61.13483088 139.98233003 64 142 C65.34771484 142.95712891 65.34771484 142.95712891 66.72265625 143.93359375 C78.02384929 151.49482362 88.72883058 154.95187724 102 157 C102 157.66 102 158.32 102 159 C99.75157909 159.98293267 97.50140453 160.96144466 95.25 161.9375 C94.61578125 162.21529297 93.9815625 162.49308594 93.328125 162.77929688 C81.53427339 167.87768065 69.14343801 166.83906897 57 163 C44.33702652 157.53584021 31.54563211 148.04698811 22.67236328 137.40820312 C20.44205582 135.53018656 19.00372101 135.57587033 16.11328125 135.48828125 C15.17548828 135.45283203 14.23769531 135.41738281 13.27148438 135.38085938 C11.80678711 135.34702148 11.80678711 135.34702148 10.3125 135.3125 C9.32443359 135.27833984 8.33636719 135.24417969 7.31835938 135.20898438 C4.87930601 135.12650431 2.43967061 135.06157567 0 135 C0 130.38 0 125.76 0 121 C3.63 121 7.26 121 11 121 C11 85.69 11 50.38 11 14 C7.37 14 3.74 14 0 14 C0 9.38 0 4.76 0 0 Z M5 6 C5 6.66 5 7.32 5 8 C5.62648437 8.12117187 6.25296875 8.24234375 6.8984375 8.3671875 C8.12433594 8.61855469 8.12433594 8.61855469 9.375 8.875 C10.59316406 9.11863281 10.59316406 9.11863281 11.8359375 9.3671875 C14 10 14 10 16 12 C16.24888897 13.94000912 16.24888897 13.94000912 16.24723816 16.35838318 C16.25143265 17.27393982 16.25562714 18.18949646 16.25994873 19.13279724 C16.25151947 20.64378746 16.25151947 20.64378746 16.24291992 22.18530273 C16.24481827 23.2439151 16.24671661 24.30252747 16.24867249 25.39321899 C16.25238938 28.90675162 16.24166232 32.42007936 16.23046875 35.93359375 C16.22927727 38.3673551 16.22882372 40.80111691 16.2290802 43.23487854 C16.22751371 48.3419176 16.21921192 53.44888673 16.20581055 58.5559082 C16.18882951 65.1111995 16.18499587 71.66641379 16.18575573 78.22172451 C16.18548412 83.24962605 16.18000415 88.27751066 16.17275429 93.30540657 C16.16956578 95.722798 16.16759979 98.14019135 16.16686058 100.55758476 C16.16469846 103.93352415 16.15595661 107.309381 16.14526367 110.68530273 C16.14571686 111.69060532 16.14617004 112.6959079 16.14663696 113.73167419 C16.14237198 114.65005066 16.13810699 115.56842712 16.13371277 116.51463318 C16.13203692 117.31307364 16.13036108 118.11151411 16.12863445 118.93414974 C16 121 16 121 15 124 C11.88387743 126.07741505 8.6648732 126.50024456 5 127 C5 127.66 5 128.32 5 129 C18.86 129 32.72 129 47 129 C47 128.34 47 127.68 47 127 C44.98177083 126.54427083 42.96354167 126.08854167 40.9453125 125.6328125 C39 125 39 125 37 123 C36.7215271 120.6335144 36.7215271 120.6335144 36.68115234 117.63232422 C36.66128265 116.51131317 36.64141296 115.39030212 36.62094116 114.23532104 C36.60938995 113.02071198 36.59783875 111.80610291 36.5859375 110.5546875 C36.56657135 109.31453888 36.5472052 108.07439026 36.5272522 106.79666138 C36.4775119 103.49888221 36.43627523 100.20113861 36.39910889 96.90319824 C36.35910998 93.53822666 36.30799897 90.17342608 36.2578125 86.80859375 C36.16160213 80.20583893 36.07659617 73.60300989 36 67 C37.30481323 67.0314209 37.30481323 67.0314209 38.63598633 67.06347656 C58.92715058 67.73900548 58.92715058 67.73900548 79 65.3125 C79.71389893 65.16393555 80.42779785 65.01537109 81.16333008 64.86230469 C88.10973685 63.14979046 94.24778678 59.49066449 98.875 54 C99.42929687 53.360625 99.98359375 52.72125 100.5546875 52.0625 C105.75832809 44.63676424 104.98044253 34.03417812 103.5703125 25.35546875 C101.56633645 19.08376593 97.0070983 14.74070928 91.44921875 11.5234375 C80.27215599 6.11671124 69.36843006 5.71503317 57.1484375 5.8046875 C55.638155 5.80842558 54.12787004 5.81126879 52.61758423 5.81326294 C48.67536522 5.82083693 44.73329759 5.8404305 40.7911377 5.8626709 C36.75531053 5.88326497 32.7194585 5.89229343 28.68359375 5.90234375 C20.78899364 5.9236834 12.89451574 5.95774234 5 6 Z " fill="#57371C" transform="translate(228,152)"/>
<path d="M0 0 C18.15 0 36.3 0 55 0 C55 0.66 55 1.32 55 2 C53.4221875 2.12375 53.4221875 2.12375 51.8125 2.25 C47.69728295 3.0595509 45.97027002 4.11709086 43 7 C41.83246103 9.33507793 41.86937787 10.70536339 41.85955811 13.30696106 C41.85384796 14.21121323 41.84813782 15.11546539 41.84225464 16.04711914 C41.84113678 17.04195312 41.84001892 18.03678711 41.83886719 19.06176758 C41.83390228 20.10741379 41.82893738 21.15306 41.82382202 22.23039246 C41.80917482 25.70177866 41.80239399 29.17311917 41.796875 32.64453125 C41.79112548 35.05108136 41.78536772 37.45763145 41.77960205 39.86418152 C41.76908466 44.9157228 41.76324688 49.96724813 41.75976562 55.01879883 C41.7542806 61.49549566 41.73025529 67.97198228 41.70179367 74.44861317 C41.68318036 79.42169309 41.67796237 84.39472227 41.67642975 89.36783409 C41.67339954 91.7556746 41.66535869 94.14351415 41.65224457 96.53132057 C41.63521242 99.87105977 41.63705768 103.21028396 41.64355469 106.55004883 C41.6343399 107.53881012 41.62512512 108.52757141 41.6156311 109.54629517 C41.64574492 114.48155692 41.67129865 118.05830786 45 122 C48.44450737 124.29633824 50.93812283 124.54016485 55 125 C55 125.66 55 126.32 55 127 C36.85 127 18.7 127 0 127 C0 126.34 0 125.68 0 125 C0.61488281 124.82984375 1.22976562 124.6596875 1.86328125 124.484375 C6.88680838 123.05226004 6.88680838 123.05226004 11 120 C12.59653343 116.80693314 13.12662618 114.24362253 13.14044189 110.72463989 C13.14615204 109.85266968 13.15186218 108.98069946 13.15774536 108.08230591 C13.15886322 107.12847015 13.15998108 106.1746344 13.16113281 105.19189453 C13.16609772 104.18511658 13.17106262 103.17833862 13.17617798 102.14105225 C13.19080312 98.80496542 13.19760188 95.46892614 13.203125 92.1328125 C13.20887575 89.81737262 13.21463349 87.50193276 13.22039795 85.18649292 C13.23090866 80.32924172 13.23675101 75.47200707 13.24023438 70.61474609 C13.24572206 64.38805809 13.26975582 58.16158843 13.29820633 51.93496895 C13.31682029 47.15147256 13.32203763 42.36802891 13.32357025 37.58449936 C13.32659964 35.28876424 13.33463775 32.99303011 13.34775543 30.69733047 C13.36479113 27.48701554 13.36294165 24.2772362 13.35644531 21.06689453 C13.37026749 19.64221359 13.37026749 19.64221359 13.3843689 18.18875122 C13.35330321 13.29329293 13.19226455 9.97315513 10 6 C6.91831925 3.0245841 4.20721299 2.47809239 0 2 C0 1.34 0 0.68 0 0 Z " fill="#5472FF" transform="translate(148,153)"/>
<path d="M0 0 C1.32 0 2.64 0 4 0 C5.39714124 12.73499018 5.15242021 25.52031044 5.125 38.3125 C5.12367065 40.08491058 5.12367065 40.08491058 5.12231445 41.89312744 C5.10325186 63.60651957 4.70768944 85.29877849 4 107 C1.0239076 105.68958049 -0.76516034 104.41357564 -2.77734375 101.8671875 C-3.28410645 101.23409668 -3.79086914 100.60100586 -4.31298828 99.94873047 C-4.84907715 99.26439941 -5.38516602 98.58006836 -5.9375 97.875 C-7.10002327 96.41647762 -8.26279056 94.9581497 -9.42578125 93.5 C-10.0182666 92.75234375 -10.61075195 92.0046875 -11.22119141 91.234375 C-13.45738817 88.42547124 -15.72646896 85.64445243 -17.9987793 82.86474609 C-24.43482703 74.98998419 -30.76658593 67.03610873 -37 59 C-37.63679687 58.31421875 -38.27359375 57.6284375 -38.9296875 56.921875 C-40 55 -40 55 -39.578125 52.7578125 C-37.32923103 48.82781463 -34.58126795 45.40031865 -31.75 41.875 C-26.62615381 35.39825058 -21.62492937 28.85367309 -16.75 22.1875 C-15.59132982 20.61184385 -14.43247957 19.03632011 -13.2734375 17.4609375 C-11.66991276 15.27943075 -10.06957509 13.09606284 -8.48144531 10.90332031 C-7.12391781 9.03109044 -5.751562 7.17075449 -4.375 5.3125 C-3.61960938 4.27738281 -2.86421875 3.24226562 -2.0859375 2.17578125 C-1.39757812 1.45777344 -0.70921875 0.73976562 0 0 Z " fill="#5673FB" transform="translate(235,166)"/>
<path d="M0 0 C16.5 0 33 0 50 0 C50 0.33 50 0.66 50 1 C43.73 1 37.46 1 31 1 C31 20.14 31 39.28 31 59 C39.25 59 47.5 59 56 59 C56 59.33 56 59.66 56 60 C47.75 60 39.5 60 31 60 C31.04659786 67.374111 31.09685762 74.74647681 31.18379211 82.11994171 C31.22318226 85.55353353 31.25555621 88.98686415 31.27099609 92.4206543 C31.28903149 96.36019933 31.33896431 100.29902769 31.390625 104.23828125 C31.39185364 105.46960281 31.39308228 106.70092438 31.39434814 107.96955872 C31.41406677 109.11051498 31.4337854 110.25147125 31.45410156 111.42700195 C31.46298401 112.432939 31.47186646 113.43887604 31.48101807 114.47529602 C31.78039501 117.11816953 31.78039501 117.11816953 33.83099365 118.80534363 C36.5235047 120.28833858 38.96454047 120.65506142 42 121 C42 121.66 42 122.32 42 123 C28.14 123 14.28 123 0 123 C0 122.34 0 121.68 0 121 C3.02734375 120.26757812 3.02734375 120.26757812 6.0546875 119.53515625 C8.0585657 119.05153008 8.0585657 119.05153008 10 118 C10.93867792 115.18396623 11.13351317 113.43780705 11.15390015 110.5213623 C11.16250061 109.604431 11.17110107 108.68749969 11.17996216 107.74278259 C11.18422211 106.73905106 11.18848206 105.73531952 11.19287109 104.70117188 C11.20104858 103.64241348 11.20922607 102.58365509 11.21765137 101.49281311 C11.24249187 97.98479786 11.25901409 94.47682291 11.2734375 90.96875 C11.27876118 89.77269638 11.28408485 88.57664276 11.28956985 87.34434509 C11.31628992 81.01912069 11.33567237 74.693916 11.35009766 68.36865234 C11.36678288 61.82102626 11.41159679 55.27389986 11.4624691 48.72646332 C11.49603473 43.70285427 11.5076631 38.6793657 11.51332474 33.65565491 C11.52006203 31.24101421 11.53534771 28.82638211 11.55921555 26.41184998 C11.5906527 23.04042033 11.59093627 19.67036437 11.58349609 16.29882812 C11.59990143 15.29509659 11.61630676 14.29136505 11.63320923 13.25721741 C11.610358 10.73836738 11.55237515 8.45728216 11 6 C7.6761846 3.00255261 4.38839927 2.51027898 0 2 C0 1.34 0 0.68 0 0 Z " fill="#0195AF" transform="translate(233,158)"/>
<path d="M0 0 C5.4140625 -0.12375 5.4140625 -0.12375 10.9375 -0.25 C12.05632568 -0.28641602 13.17515137 -0.32283203 14.32788086 -0.36035156 C22.53116172 -0.45026642 28.46564724 1.21763719 34.9375 6.3125 C40.4692354 13.52051886 40.05862753 24.30334169 39 33 C37.71424576 37.25195938 35.96375051 39.86691193 32.09765625 42.09765625 C21.86714197 46.31946157 10.91113825 45 0 45 C0 30.15 0 15.3 0 0 Z " fill="#FDFDFD" transform="translate(269,166)"/>
<path d="M0 0 C0.80566406 0.68964844 1.61132812 1.37929688 2.44140625 2.08984375 C3.14136719 2.69957031 3.84132813 3.30929687 4.5625 3.9375 C15.48941124 12.64566437 27.39479373 16.12280334 41 18 C41 18.66 41 19.32 41 20 C38.75157909 20.98293267 36.50140453 21.96144466 34.25 22.9375 C33.29867187 23.35418945 33.29867187 23.35418945 32.328125 23.77929688 C20.53427339 28.87768065 8.14343801 27.83906897 -4 24 C-16.66297348 18.53584021 -29.45436789 9.04698811 -38.32763672 -1.59179688 C-40.55794418 -3.46981344 -41.99627899 -3.42412967 -44.88671875 -3.51171875 C-46.2934082 -3.56489258 -46.2934082 -3.56489258 -47.72851562 -3.61914062 C-48.70498047 -3.64169922 -49.68144531 -3.66425781 -50.6875 -3.6875 C-51.67556641 -3.72166016 -52.66363281 -3.75582031 -53.68164062 -3.79101562 C-56.12098053 -3.87350538 -58.55996063 -3.94265068 -61 -4 C-61 -4.33 -61 -4.66 -61 -5 C-53.59957927 -5.29604912 -46.19866331 -5.54314172 -38.79541016 -5.75683594 C-36.27908682 -5.83517766 -33.76308168 -5.9245733 -31.24755859 -6.02539062 C-27.62365079 -6.16868473 -24.00044454 -6.27170025 -20.375 -6.3671875 C-19.25697998 -6.42002899 -18.13895996 -6.47287048 -16.98706055 -6.52731323 C-9.44236012 -6.67297129 -5.42267945 -5.24924064 0 0 Z " fill="#5673F9" transform="translate(289,291)"/>
<path d="M0 0 C34.05405405 0 34.05405405 0 42 7 C49.93165645 15.94706174 50.81799569 24.49374772 50.19970703 36.02392578 C49.62760521 41.68479641 47.17132433 45.54375894 43.6875 49.875 C37.12049219 55.06751781 30.29563119 56.13346093 22.16796875 56.09765625 C21.00289795 56.09515869 19.83782715 56.09266113 18.63745117 56.09008789 C16.43472534 56.07643188 16.43472534 56.07643188 14.1875 56.0625 C9.505625 56.041875 4.82375 56.02125 0 56 C0 37.52 0 19.04 0 0 Z M5 6 C5 20.85 5 35.7 5 51 C23.53097913 52.15333648 23.53097913 52.15333648 40.125 45.5625 C45.35056107 38.42089987 44.62615553 30.53403138 44 22 C43.08822547 16.30555361 40.34883997 12.8458851 36.01171875 9.2265625 C29.67116839 5.36067354 23.30601737 5.76091945 16.125 5.875 C10.618125 5.936875 10.618125 5.936875 5 6 Z " fill="#583619" transform="translate(264,160)"/>
<path d="M0 0 C0.33 0 0.66 0 1 0 C1 17.16 1 34.32 1 52 C-3.35129876 47.64870124 -7.23538415 43.24123701 -11.125 38.5 C-11.74503906 37.75363281 -12.36507812 37.00726563 -13.00390625 36.23828125 C-15.97346567 32.6301069 -18.75856176 29.1229375 -21 25 C-20.154375 24.03320312 -19.30875 23.06640625 -18.4375 22.0703125 C-12.6015198 15.37787208 -6.82701641 8.68406532 -1.390625 1.66015625 C-0.93171875 1.11230469 -0.4728125 0.56445312 0 0 Z " fill="#FCFCFF" transform="translate(238,180)"/>
</svg>
